# xmcd
#
# Track frame offsets:
#	150
#	13630
#	29414
#	44312
#	62863
#	83499
#	95804
#	109817
#	123173
#	139619
#	152340
#	165489
#	180589
#	193383
#	207746
#	221414
#	244936
#	258978
#	271667
#	282898
#	293547
#	307536
#
# Disc length: 4286 seconds
#
# Revision: 1
# Processed by: cddbd v1.5.2PL0 Copyright (c) Steve Scherf et al.
# Submitted via: audiograbber 1.83.01
#
DISCID=2f10bc16
DTITLE=sagablues 42 - Black Heroes
DYEAR=2007
DGENRE=Blues
TTITLE0=Mississippi John Hurt - Stack O'Lee (1928)
TTITLE1=Walker, Willie - Dupree Blues (1930
TTITLE2=Leadbelly - John Hardy (1944)
TTITLE3=Leadbelly - Duncan And Brady (1947)
TTITLE4=Archibald - Stack-A-Lee  Part 1&2 (1950)
TTITLE5=Papa Charlie Jackson - Long Gone Lost John (1928)
TTITLE6=Barbecue Bob - Monkey And The Baboon (1930)
TTITLE7=Bennett, Will - Railroad Bill (1929)
TTITLE8=Big Bill Broonzy - Blues In 1890 (1951)
TTITLE9=Gillum, Jazz and His Jazz Boys - Just Like Jesse James (1938)
TTITLE10=Carter, Benny and His All Star Orchestra - Joe Turner Blues  (1940)
TTITLE11=Big Bill Broonzy - John Henry (1951)
TTITLE12=Two Poor Boys - John Henry Blues (1931)
TTITLE13=Lewis, Furry - Kassie Jones (1928)
TTITLE14=James, Jesse - The Boogie Southern Casey Jones (1948)
TTITLE15=Leadbelly - The Titanic (1945)
TTITLE16=Pullum, Joe - Joe Louis Is The Man (1935)
TTITLE17=Memphis Minnie - He Is In The Ring (Doing That Same Old Thing) (1935)
TTITLE18=Hunter, Alberta - He's Got A Punch Like Joe Louis (1946)
TTITLE19=McGhee, Brownie - Robbie-Doby Boogie (1948) 
TTITLE20=Memphis Minnie - Sylvester And His Mule Blues (1935)
TTITLE21=Gates, Rev. J. M. - President Roosevelt Is Everybody's Friend (1934)
EXTD=SagaBlues 42
EXTT0=
EXTT1=
EXTT2=
EXTT3=
EXTT4=
EXTT5=
EXTT6=
EXTT7=
EXTT8=
EXTT9=
EXTT10=
EXTT11=
EXTT12=
EXTT13=
EXTT14=
EXTT15=
EXTT16=
EXTT17=
EXTT18=
EXTT19=
EXTT20=
EXTT21=
PLAYORDER=
